HIERARCHY
ROOT Hip
{
	OFFSET 0 0 0
	CHANNELS 6 Xposition Yposition Zposition Zrotation Yrotation Xrotation
	JOINT ShoulderCenter
	{
		OFFSET 0 0.4363 0
		CHANNELS 3 Zrotation Yrotation Xrotation
		JOINT Head
		{
			OFFSET 0 0.1849 0
			CHANNELS 3 Zrotation Yrotation Xrotation
			End Site
			{
				OFFSET 0.0 0.0891 0.0
			}
		}
		JOINT ShoulderLeft
		{
			OFFSET -0.14 0 0
			CHANNELS 3 Zrotation Yrotation Xrotation
			JOINT ElbowLeft
			{
				OFFSET -0.25 0 0
				CHANNELS 3 Zrotation Yrotation Xrotation
				JOINT WristLeft
				{
					OFFSET -0.23 0 0
					CHANNELS 3 Zrotation Yrotation Xrotation
					End Site
					{
						OFFSET -0.0832 0.0 0.0
					}
				}
			}
		}
		JOINT ShoulderRight
		{
			OFFSET 0.14 0 0
			CHANNELS 3 Zrotation Yrotation Xrotation
			JOINT ElbowRight
			{
				OFFSET 0.25 0 0
				CHANNELS 3 Zrotation Yrotation Xrotation
				JOINT WristRight
				{
					OFFSET 0.23 0 0
					CHANNELS 3 Zrotation Yrotation Xrotation
					End Site
					{
						OFFSET 0.0832 0.0 0.0
					}
				}
			}
		}
	}
	JOINT HipLeft
	{
		OFFSET -0.0952 0 0
		CHANNELS 3 Zrotation Yrotation Xrotation
		JOINT KneeLeft
		{
			OFFSET 0 -0.3732 0
			CHANNELS 3 Zrotation Yrotation Xrotation
			JOINT AnkleLeft
			{
				OFFSET 0 -0.346 0
				CHANNELS 3 Zrotation Yrotation Xrotation
				End Site
				{
					OFFSET 0.0 0.0 0.0891
				}
			}
		}
	}
	JOINT HipRight
	{
		OFFSET 0.0952 0 0
		CHANNELS 3 Zrotation Yrotation Xrotation
		JOINT KneeRight
		{
			OFFSET 0 -0.3732 0
			CHANNELS 3 Zrotation Yrotation Xrotation
			JOINT AnkleRight
			{
				OFFSET 0 -0.346 0
				CHANNELS 3 Zrotation Yrotation Xrotation
				End Site
				{
					OFFSET 0.0 0.0 0.0891
				}
			}
		}
	}
}
MOTION
Frames: 10
Frame Time: 0.033333
0.0 0.7192 0.0 3.0787 -6.35259 0.0 -2.15706 0.962723 24.0408 0 0 0 74.836 -8.84225 48.192 -5.75961e-06 34.1257 -7.1263e-06 0 0 0 -64.4493 12.1063 60.4538 -1.49148e-05 -27.4729 1.06772e-05 0 0 0 -7.92597 1.67156 12.1704 2.1667 0.132681 1.27751 0 0 8.53774e-07 -1.30201 0.34114 16.987 2.43792 -0.013893 0.727914 0 0 0
0.0 0.7306239999999999 -0.0024599999999996847 3.88286 -8.38473 -0.45279999999999987 -3.28701 1.45455 24.2358 0 0 0 76.0462 -7.58441 49.1566 1.55652e-06 33.0675 2.24326e-06 0 0 0 -65.3718 13.2855 53.601 -6.59498e-06 -29.8378 -1.77711e-06 0 0 0 -7.76984 1.66245 12.0976 1.82777 -0.0167546 -0.154433 0 0 0 -1.89711 0.591974 17.9741 2.22155 -0.0024547 0.868625 -4.26887e-07 0 0
-0.0007570000000000077 0.792796 -0.06348999999999982 7.40526 -23.2287 4.9754000000000005 -6.77157 2.6969 16.5116 1.2424e-17 1.70755e-06 8.33763e-10 75.8608 -3.10599 62.8768 5.92474 20.0407 1.9607 4.26887e-07 6.36111e-15 -1.70755e-06 -72.9973 23.391 25.612 -2.9092e-06 -30.45 2.56143e-06 0 0 0 7.0879 3.52895 -4.79045 -17.6732 0.318327 1.82375 8.53774e-07 -1.27222e-14 1.70755e-06 -4.04819 0.11573 6.88428 5.0716 -0.130874 4.96865 0 0 0
-0.0007570000000000077 0.792796 -0.06663999999999959 7.1665 -24.0467 5.095199999999998 -6.89492 2.50462 16.7508 0 0 0 76.1081 -6.24048 57.8454 1.06718e-05 24.723 -1.15731e-06 0 0 0 -73.799 20.0267 24.7226 1.34589e-06 -26.6608 -3.82857e-06 0 0 0 6.55827 2.94663 -5.19921 -15.9216 0.259998 1.65428 0 0 0 -2.87213 0.273589 8.21521 3.04274 -0.0181411 2.71833 0 0 0
-0.0007570000000000077 0.792796 -0.07355999999999963 7.49355 -26.1281 5.639399999999998 -7.40685 2.70946 16.3681 0 0 0 76.0333 -3.9568 63.0142 7.70639e-07 22.6426 -1.58715e-06 0 0 0 -74.3536 19.324 24.4582 1.38797e-05 -25.9577 -3.19898e-06 0 0 0 7.21507 3.36273 -6.95939 -16.1164 0.317165 2.23878 0 1.06722e-07 0 -2.90177 0.200922 7.3755 2.77985 -0.0236586 3.31156 0 -1.33402e-08 0
5.6000000000000494e-05 0.786559 -0.07355999999999963 7.66474 -26.6481 5.9354999999999976 -7.99476 2.20174 15.7775 0 0 0 76.0242 -3.26233 64.1415 3.4144 18.9009 0.917634 0 0 0 -74.8371 20.2876 25.1012 -7.32396e-06 -25.8807 5.18693e-06 0 0 0 6.74936 3.23144 -8.20756 -15.6513 0.452819 2.92068 0 0 0 -3.46768 0.375703 6.94184 2.62283 0.0410755 2.11666 0 1.70755e-06 0
0.0018249999999999933 0.786489 -0.07355999999999963 8.01056 -26.5796 5.950299999999999 -8.82064 2.2705 15.9001 0 1.70755e-06 0 75.362 -2.81191 64.2086 4.38321 20.4999 1.11324 0 0 0 -73.9295 19.0462 28.5704 -1.89354e-06 -24.6002 -1.3348e-06 0 0 0 5.96878 2.94987 -8.64314 -14.5844 0.459333 3.25865 0 0 0 -3.76108 0.400739 7.50249 2.54766 0.0101293 0.604831 0 0 0
0.0018249999999999933 0.786489 -0.07368999999999959 7.27933 -26.44 6.027099999999997 -8.57154 2.22232 16.6455 5.33609e-08 -3.33505e-09 -4.26887e-07 75.7056 -2.03637 63.9721 4.73989 20.3835 1.10923 0 0 1.70755e-06 -73.7072 18.405 28.462 7.48253e-06 -27.6854 -3.60242e-06 0 0 0 5.76175 2.24658 -7.78001 -12.8512 0.224948 1.77267 0 0 0 -3.10007 0.426516 7.80796 2.32418 0.0174124 0.847527 0 0 0
0.003924999999999984 0.78387 -0.07243999999999984 7.30597 -26.3176 5.976299999999998 -8.30845 2.72707 17.1735 0 0 0 72.8821 -2.11525 77.8507 -5.16446e-06 24.1019 2.38951e-06 0 0 0 -73.8623 17.5875 34.6355 8.20404e-06 -26.5539 -1.24625e-05 0 0 0 4.93594 1.81258 -7.63076 -11.3065 0.120769 1.10825 0 0 0 -3.13323 0.392592 7.83243 1.99411 0.0312924 1.49667 0 0 0
0.003924999999999984 0.783758 -0.0721099999999999 6.82698 -24.8385 6.165099999999999 -8.04342 2.24582 17.3924 0 0 2.66804e-08 71.4865 -1.70499 76.9074 7.0059e-06 26.9796 -7.53418e-08 0 0 0 -73.6249 16.0043 17.5072 3.62768e-06 -52.6698 -1.79566e-06 0 0 0 3.36041 0.979658 -7.17422 -8.44809 0.13027 1.31125 0 0 0 -3.04699 0.496597 8.21467 1.8366 0.0626762 1.86718 0 0 0
